<svg width="152" height="146" viewBox="0 0 152 146" fill="none" xmlns="http://www.w3.org/2000/svg">
<ellipse cx="76" cy="73" rx="76" ry="73" fill="black"/>
<path d="M141.342 77.5473C139.681 84.1814 117.643 90.6978 96.0088 90.6978C108.045 89.6458 130.819 82.9845 131.467 77.5473C132.032 72.8131 101.664 68.3419 76.8383 68.3419C52.013 68.3419 21.6268 72.8131 22.191 77.5473C22.839 82.9845 45.6136 89.6458 57.6501 90.6978C36.0151 90.6978 13.9916 84.18 12.3257 77.5473C9.68342 67.0269 47.8735 63.7393 76.8383 63.7393C105.803 63.7393 143.975 67.0269 141.342 77.5473Z" fill="#FFFAFE"/>
<path d="M113.619 82.9678C112.655 86.2039 99.8613 89.3827 87.3023 89.3827C94.2896 88.8695 107.51 85.6201 107.886 82.9678C108.214 80.6584 90.585 77.5472 76.1737 77.5472C61.7624 77.5472 44.123 80.6584 44.4506 82.9678C44.8267 85.6201 58.0476 88.8695 65.0348 89.3827C52.4756 89.3827 39.6908 86.2033 38.7237 82.9678C37.1898 77.8359 59.3594 73.6021 76.1737 73.6021C92.988 73.6021 115.147 77.8359 113.619 82.9678Z" fill="#FFFAFE"/>
<path d="M94.6032 85.1518C94.1467 86.6227 87.3911 88.0676 81.4421 88.0676C84.7519 87.8344 91.0143 86.3573 91.1925 85.1518C91.3476 84.1021 82.9971 83.1107 76.1706 83.1107C69.3442 83.1107 60.9886 84.1021 61.1438 85.1518C61.3219 86.3573 67.5845 87.8344 70.8943 88.0676C64.9451 88.0676 58.1968 86.6224 57.7387 85.1518C57.0121 82.8191 68.2077 80.8348 76.1724 80.8348C84.1371 80.8348 95.3273 82.8191 94.6032 85.1518Z" fill="#FFFAFE"/>
<path d="M11 71.3843C26.799 57.5763 125.543 57.8215 142 71.3843C128.176 48.6161 24.1658 48.6161 11 71.3843Z" fill="#FFFAFE"/>
<path d="M49.1809 53.6142C59.7136 51.2462 93.9447 51.2462 103.161 53.6141C93.9447 41.6897 58.397 41.6899 49.1809 53.6142Z" fill="#FFFAFE"/>
<path d="M76.8292 116.013C75.5126 98.9169 76.8292 89.054 70.2462 86.4239C72.8794 85.1089 80.7789 85.1089 83.4121 86.4239C76.8292 89.054 78.1457 98.9169 76.8292 116.013Z" fill="#FFFAFE"/>
<path d="M127 54C123.622 43.8622 116.97 35.0117 108.003 28.7223C99.0359 22.4329 88.2152 19.0289 77.0983 19.0002C65.9814 18.9715 55.1416 22.3196 46.139 28.5626C37.1365 34.8056 30.4353 43.6216 27 53.7418" stroke="#FFFAFE" stroke-width="3" stroke-linecap="round"/>
<path d="M27 91C30.3782 101.717 37.0296 111.073 45.9969 117.722C54.9641 124.371 65.7848 127.969 76.9017 128C88.0186 128.03 98.8584 124.491 107.861 117.891C116.864 111.291 123.565 101.971 127 91.2729" stroke="#FFFAFE" stroke-width="3" stroke-linecap="round"/>
<path d="M25 21C25 25 22 29 18 29C22 29 25 33 25 37C25 33 28 29 32 29C28 29 25 25 25 21Z" fill="#FFFAFE"/>
</svg>
